<?xml version="1.0" encoding="UTF-8" standalone="no"?>
<svg
   xmlns:dc="http://purl.org/dc/elements/1.1/"
   xmlns:cc="http://creativecommons.org/ns#"
   xmlns:rdf="http://www.w3.org/1999/02/22-rdf-syntax-ns#"
   xmlns:svg="http://www.w3.org/2000/svg"
   xmlns="http://www.w3.org/2000/svg"
   xmlns:xlink="http://www.w3.org/1999/xlink"
   xmlns:sodipodi="http://sodipodi.sourceforge.net/DTD/sodipodi-0.dtd"
   xmlns:inkscape="http://www.inkscape.org/namespaces/inkscape"
   height="128"
   width="128"
   version="1.1"
   id="svg3188"
   inkscape:version="0.48.4 r9939"
   sodipodi:docname="relay.svg">
  <sodipodi:namedview
     pagecolor="#ffffff"
     bordercolor="#666666"
     borderopacity="1"
     objecttolerance="10"
     gridtolerance="10"
     guidetolerance="10"
     inkscape:pageopacity="0"
     inkscape:pageshadow="2"
     inkscape:window-width="640"
     inkscape:window-height="480"
     id="namedview34"
     showgrid="false"
     inkscape:zoom="1.84375"
     inkscape:cx="49.965726"
     inkscape:cy="71.10347"
     inkscape:window-x="0"
     inkscape:window-y="30"
     inkscape:window-maximized="0"
     inkscape:current-layer="svg3188" />
  <metadata
     id="metadata3194">
    <rdf:RDF>
      <cc:Work
         rdf:about="">
        <dc:format>image/svg+xml</dc:format>
        <dc:type
           rdf:resource="http://purl.org/dc/dcmitype/StillImage" />
        <dc:title />
      </cc:Work>
    </rdf:RDF>
  </metadata>
  <defs
     id="defs3192">
    <linearGradient
       id="linearGradient4236">
      <stop
         style="stop-color:#ff4000;stop-opacity:1"
         offset="0"
         id="stop4238" />
      <stop
         id="stop4240"
         offset="0.58823532"
         style="stop-color:#ba3c12;stop-opacity:1" />
      <stop
         style="stop-color:#931f28;stop-opacity:1;"
         offset="1"
         id="stop4242" />
    </linearGradient>
    <linearGradient
       xlink:href="#linearGradient3924"
       id="linearGradient3234"
       gradientUnits="userSpaceOnUse"
       gradientTransform="matrix(2.7297298,0,0,2.7297298,-1.5135111,1.4865089)"
       x1="23.99999"
       y1="4.999989"
       x2="23.99999"
       y2="43" />
    <linearGradient
       id="linearGradient3924">
      <stop
         offset="0"
         style="stop-color:#ffffff;stop-opacity:1;"
         id="stop3926" />
      <stop
         id="stop3928"
         style="stop-color:#ffffff;stop-opacity:0.23529412;"
         offset="0.06316455" />
      <stop
         offset="0.95056331"
         style="stop-color:#ffffff;stop-opacity:0.15686275;"
         id="stop3930" />
      <stop
         offset="1"
         style="stop-color:#ffffff;stop-opacity:0.39215687;"
         id="stop3932" />
    </linearGradient>
    <radialGradient
       xlink:href="#linearGradient4236"
       id="radialGradient4006"
       gradientUnits="userSpaceOnUse"
       gradientTransform="matrix(5.1311078e-8,6.1720508,-6.529293,-1.137127e-7,119.17128,-29.225265)"
       cx="7.4956832"
       cy="8.4497671"
       fx="7.4956832"
       fy="8.4497671"
       r="19.99999" />
    <radialGradient
       gradientTransform="matrix(2.003784,0,0,1.4,27.98813,-17.4)"
       gradientUnits="userSpaceOnUse"
       xlink:href="#linearGradient3688-166-749"
       id="radialGradient2455"
       fy="43.5"
       fx="4.9929786"
       r="2.5"
       cy="43.5"
       cx="4.9929786" />
    <linearGradient
       id="linearGradient3688-166-749">
      <stop
         offset="0"
         style="stop-color:#181818;stop-opacity:1"
         id="stop2883" />
      <stop
         offset="1"
         style="stop-color:#181818;stop-opacity:0"
         id="stop2885" />
    </linearGradient>
    <radialGradient
       gradientTransform="matrix(2.003784,0,0,1.4,-20.01187,-104.4)"
       gradientUnits="userSpaceOnUse"
       xlink:href="#linearGradient3688-166-749"
       id="radialGradient2457"
       fy="43.5"
       fx="4.9929786"
       r="2.5"
       cy="43.5"
       cx="4.9929786" />
    <linearGradient
       gradientUnits="userSpaceOnUse"
       xlink:href="#linearGradient3702-501-757"
       id="linearGradient2459"
       y2="39.999443"
       x2="25.058096"
       y1="47.027729"
       x1="25.058096" />
    <linearGradient
       id="linearGradient3702-501-757">
      <stop
         offset="0"
         style="stop-color:#181818;stop-opacity:0"
         id="stop2895" />
      <stop
         offset="0.5"
         style="stop-color:#181818;stop-opacity:1"
         id="stop2897" />
      <stop
         offset="1"
         style="stop-color:#181818;stop-opacity:0"
         id="stop2899" />
    </linearGradient>
    <linearGradient
       inkscape:collect="always"
       xlink:href="#linearGradient3924"
       id="linearGradient3027"
       gradientUnits="userSpaceOnUse"
       gradientTransform="matrix(3.4023804,0,0,3.2407255,-58.606273,-1.7612752)"
       x1="23.99999"
       y1="4.999989"
       x2="23.99999"
       y2="43" />
    <radialGradient
       inkscape:collect="always"
       xlink:href="#linearGradient4236"
       id="radialGradient3029"
       gradientUnits="userSpaceOnUse"
       gradientTransform="matrix(5.6030274e-8,6.6724949,-7.1298067,-1.2293278e-7,124.78789,-42.655393)"
       cx="7.4956832"
       cy="8.4497671"
       fx="7.4956832"
       fy="8.4497671"
       r="19.99999" />
    <radialGradient
       inkscape:collect="always"
       xlink:href="#linearGradient3688-166-749"
       id="radialGradient3031"
       gradientUnits="userSpaceOnUse"
       gradientTransform="matrix(2.003784,0,0,1.4,27.98813,-17.4)"
       cx="4.9929786"
       cy="43.5"
       fx="4.9929786"
       fy="43.5"
       r="2.5" />
    <radialGradient
       inkscape:collect="always"
       xlink:href="#linearGradient3688-166-749"
       id="radialGradient3033"
       gradientUnits="userSpaceOnUse"
       gradientTransform="matrix(2.003784,0,0,1.4,-20.01187,-104.4)"
       cx="4.9929786"
       cy="43.5"
       fx="4.9929786"
       fy="43.5"
       r="2.5" />
    <linearGradient
       inkscape:collect="always"
       xlink:href="#linearGradient3702-501-757"
       id="linearGradient3035"
       gradientUnits="userSpaceOnUse"
       x1="25.058096"
       y1="47.027729"
       x2="25.058096"
       y2="39.999443" />
  </defs>
  <g
     style="display:inline"
     id="g2036"
     transform="matrix(3.2213164,0,0,1.321324,-12.769254,65.234179)">
    <g
       style="opacity:0.4"
       id="g3712"
       transform="matrix(1.052632,0,0,1.285713,-1.263158,-13.42854)">
      <rect
         style="fill:url(#radialGradient3031);fill-opacity:1;stroke:none"
         id="rect2801"
         y="40"
         x="38"
         height="7"
         width="5" />
      <rect
         style="fill:url(#radialGradient3033);fill-opacity:1;stroke:none"
         id="rect3696"
         y="-47"
         x="-10"
         height="7"
         width="5"
         transform="scale(-1,-1)" />
      <rect
         style="fill:url(#linearGradient3035);fill-opacity:1;stroke:none"
         id="rect3700"
         y="40"
         x="10"
         height="7.0000005"
         width="28" />
    </g>
  </g>
  <rect
     width="112.47311"
     height="111.35148"
     rx="6.5518327"
     ry="6.4864931"
     x="8.3058071"
     y="5.6962709"
     id="rect5505-21"
     style="color:#000000;fill:url(#radialGradient3029);fill-opacity:1;fill-rule:nonzero;stroke:#000000;stroke-width:1.0865134;stroke-linecap:round;stroke-linejoin:round;stroke-miterlimit:4;stroke-opacity:0.2;stroke-dasharray:none;stroke-dashoffset:0;marker:none;visibility:visible;display:inline;overflow:visible;enable-background:accumulate" />
  <path
     id="path4861"
     d="m 56.399866,96.62883 -8.872438,-3.009262 0,-0.642704 c 0,-0.353491 1.481676,-3.726511 3.292624,-7.495586 1.810937,-3.769075 3.217735,-6.926634 3.126217,-7.016797 C 53.68211,78.204242 42.05157,75.550553 41.175165,75.550553 l -0.790675,0 -1.006253,2.287981 c -0.553444,1.258402 -1.774258,3.929291 -2.712928,5.935326 -0.938671,2.006045 -1.706665,3.869237 -1.706665,4.140448 0,0.271189 -0.225875,0.630617 -0.501936,0.798692 l -0.501936,0.305612 -5.645834,-1.962014 C 25.203729,85.977494 22.573365,85.01891 22.463698,84.926423 22.238239,84.73626 25.271715,77.38647 26.81263,74.38945 l 1.01216,-1.968629 -2.854077,-0.659525 C 23.40096,71.39856 21.965683,71.018678 21.781182,70.917122 l -0.335442,-0.18466 0.872311,-4.112664 0.872311,-4.112675 3.28842,0.349838 c 1.808622,0.192411 3.725994,0.401785 4.26082,0.465288 l 0.972412,0.115448 2.169782,-4.773594 c 1.193383,-2.625475 2.169791,-4.835143 2.169791,-4.910386 0,-0.07524 -2.426438,-0.30626 -5.392071,-0.513385 l -5.392048,-0.376595 0.890077,-4.134142 0.890077,-4.134135 6.367989,0 6.367988,0 0.415987,-0.408724 c 0.22879,-0.22479 1.69462,-3.253009 3.257396,-6.72937 l 2.841432,-6.320633 7.308744,-0.66278 c 4.019822,-0.36453 7.478742,-0.606778 7.6865,-0.538346 l 0.377746,0.124421 -1.665879,3.499269 c -3.779676,7.939447 -4.827533,10.282735 -4.827533,10.795666 l 0,0.540055 7.41269,-0.149773 7.412677,-0.149785 0.787716,-1.345871 c 0.433251,-0.740228 2.275692,-4.434653 4.094317,-8.209825 l 3.306601,-6.863954 1.471629,-0.03373 c 0.809402,-0.0186 6.082459,-0.448434 11.717919,-0.955266 5.635462,-0.506844 10.246289,-0.865634 10.246289,-0.79731 0,0.06833 -2.070796,4.253184 -4.601775,9.299686 l -4.601789,9.17547 7.607364,0 7.60737,0 0,1.349418 c 0,1.36012 -1.56987,12.236629 -1.79277,12.420792 -0.0659,0.05448 -4.40958,-0.22892 -9.652553,-0.629774 l -9.532676,-0.728822 -0.275046,0.270962 c -0.151282,0.149027 -1.682096,3.110024 -3.40181,6.579996 l -3.126764,6.309023 0.912168,0.376034 c 0.501696,0.20681 5.81486,1.120163 11.807015,2.029655 5.99217,0.909493 10.967606,1.725299 11.056526,1.8129 0.27082,0.2668 -1.62319,13.517906 -1.99459,13.954728 L 101.29181,89.017344 88.232305,86.05241 C 81.049585,84.421699 74.792978,83.093092 74.328748,83.099956 l -0.844061,0.01243 -4.106198,8.26283 -4.106197,8.262834 z m 3.14988,-29.881021 c 0,-0.40013 1.106594,-2.793765 2.45911,-5.319184 1.352507,-2.52543 2.4591,-4.840278 2.4591,-5.144105 l 0,-0.552411 -5.328071,-0.339936 c -2.930438,-0.186952 -6.125592,-0.462487 -7.10034,-0.612293 l -1.772272,-0.272357 -1.291049,2.850038 c -0.710077,1.567516 -1.849888,4.01008 -2.532917,5.427897 -0.683028,1.417829 -1.148874,2.662209 -1.0352,2.76529 0.268385,0.243373 10.680809,1.775634 12.638846,1.859894 l 1.502793,0.06465 z"
     style="fill:#ffffff;fill-opacity:1;stroke:#000000;stroke-width:1.08651352;stroke-linecap:round;stroke-linejoin:round;stroke-miterlimit:50;stroke-opacity:0.25098039;stroke-dasharray:none;stroke-dashoffset:10"
     inkscape:connector-curvature="0" />
</svg>
