<?xml version="1.0" encoding="UTF-8" standalone="no"?>
<!-- Created with Inkscape (http://www.inkscape.org/) -->

<svg
   xmlns:dc="http://purl.org/dc/elements/1.1/"
   xmlns:cc="http://creativecommons.org/ns#"
   xmlns:rdf="http://www.w3.org/1999/02/22-rdf-syntax-ns#"
   xmlns:svg="http://www.w3.org/2000/svg"
   xmlns="http://www.w3.org/2000/svg"
   xmlns:sodipodi="http://sodipodi.sourceforge.net/DTD/sodipodi-0.dtd"
   xmlns:inkscape="http://www.inkscape.org/namespaces/inkscape"
   id="svg3023"
   version="1.1"
   inkscape:version="0.48.4 r9939"
   width="26"
   height="26"
   sodipodi:docname="server-icon.svg">
  <metadata
     id="metadata3029">
    <rdf:RDF>
      <cc:Work
         rdf:about="">
        <dc:format>image/svg+xml</dc:format>
        <dc:type
           rdf:resource="http://purl.org/dc/dcmitype/StillImage" />
        <dc:title />
      </cc:Work>
    </rdf:RDF>
  </metadata>
  <defs
     id="defs3027" />
  <sodipodi:namedview
     pagecolor="#ffffff"
     bordercolor="#666666"
     borderopacity="1"
     objecttolerance="10"
     gridtolerance="10"
     guidetolerance="10"
     inkscape:pageopacity="0"
     inkscape:pageshadow="2"
     inkscape:window-width="1101"
     inkscape:window-height="703"
     id="namedview3025"
     showgrid="false"
     inkscape:zoom="9.0769231"
     inkscape:cx="13.991525"
     inkscape:cy="16.72261"
     inkscape:window-x="0"
     inkscape:window-y="30"
     inkscape:window-maximized="0"
     inkscape:current-layer="svg3023" />
  <path
     style="fill:#1a1a1a"
     d="m 2.5,-0.125 -1.1875,1.21875 -1.1875,1.1875 0,10.59375 0,10.625 1.1875,1.1875 1.1875,1.1875 6.125,0 6.09375,0 1.1875,-1.1875 1.21875,-1.1875 0,-10.625 0,-10.59375 -1.21875,-1.1875 -1.1875,-1.21875 -6.09375,0 -6.125,0 z m 15.625,0.8125 0,12.1875 0,12.21875 2.71875,-0.6875 c 1.509423,-0.378841 3.309423,-1.145622 4,-1.71875 l 1.28125,-1.03125 0,-8.78125 0,-8.75 -1.28125,-1.03125 c -0.690577,-0.5731279 -2.490577,-1.3399089 -4,-1.71875 L 18.125,0.6875 z m -16,1.1875 6.5,0 6.5,0 0,5.5 0,5.5 -6.5,0 -6.5,0 0,-5.5 0,-5.5 z m 1,1 0,2 0,2 5.5,0 5.5,0 0,-2 0,-2 -5.5,0 -5.5,0 z m 0,5 0,2 0,2 5.5,0 5.5,0 0,-2 0,-2 -5.5,0 -5.5,0 z m 5.65625,9.53125 c 0.8393021,0 1.53125,0.653428 1.53125,1.46875 0,0.815322 -0.6919479,1.46875 -1.53125,1.46875 -0.8393021,0 -1.5,-0.653428 -1.5,-1.46875 0,-0.815322 0.6606979,-1.46875 1.5,-1.46875 z"
     id="path3896"
     inkscape:connector-curvature="0" />
  <path
     style="fill:#ececec;fill-opacity:1"
     d="m 18.153866,0.67521835 c -0.240495,0.96389525 -0.07659,2.02769785 -0.14804,3.02621825 -0.0504,7.1115374 -0.01848,14.2233514 -0.02754,21.3350104 0.391744,0.466918 1.196083,-0.200084 1.743851,-0.196146 2.166636,-0.525126 4.337791,-1.233069 6.053269,-2.717542 0.859376,-0.343882 0.437492,-1.339977 0.534447,-2.043939 0,-5.300759 0,-10.6015184 0,-15.9022775 C 24.586775,2.3406192 22.071668,1.5065263 19.665432,0.92972645 19.1723,0.86715673 18.643616,0.52841154 18.153866,0.67521835 z"
     id="path3064"
     inkscape:connector-curvature="0" />
  <path
     style="fill:#ececec;fill-opacity:1"
     d="M 2.4512708,-0.20613758 C 1.6594199,0.64160111 0.72982866,1.3971254 0.02065639,2.3002183 c 0,7.0508475 0,14.1016947 0,21.1525427 0.70878031,0.903905 1.63316361,1.663919 2.42372881,2.513241 2.0801728,0.136918 4.2110336,0.01925 6.3106462,0.05853 2.0262716,-0.03875 4.0834386,0.07768 6.0903076,-0.05853 0.791851,-0.847739 1.721442,-1.603262 2.430614,-2.506356 0,-7.050847 0,-14.1016946 0,-21.1525421 -0.70878,-0.9039055 -1.633164,-1.66391991 -2.423729,-2.51324148 -2.080173,-0.13691786 -4.211033,-0.0192488 -6.310646,-0.0585276 -2.0254537,0.0387198 -4.0846281,-0.077628 -6.0903072,0.0585276 z M 8.6483047,2.0075806 c 2.1184673,0 4.2369343,0 6.3554023,0 0,3.5759181 0,7.1518362 0,10.7277544 -4.236935,0 -8.4738699,0 -12.7108048,0 0,-3.5759182 0,-7.1518363 0,-10.7277544 2.1184675,0 4.2369349,0 6.3554025,0 z m 0.051642,15.5545554 c 1.0827783,-0.103809 1.9120884,1.320193 1.1498941,2.158633 -0.7148183,0.923532 -2.4838479,0.359057 -2.3789724,-0.860699 -0.014987,-0.677332 0.5404632,-1.298504 1.2290783,-1.297934 z"
     id="path3066"
     inkscape:connector-curvature="0" />
  <path
     style="fill:#ececec;fill-opacity:1"
     d="m 3.0434318,7.8465637 c -0.1132745,1.3115823 -0.015134,2.6608713 -0.048199,3.9867583 0.4044752,0.451958 1.2701888,0.07734 1.8522245,0.199682 3.0847458,0 6.1694918,0 9.2542378,0 0.451957,-0.404475 0.07733,-1.270188 0.199682,-1.852224 -0.04525,-0.7801279 0.09192,-1.5997692 -0.06886,-2.3548731 C 11.360107,7.7131778 8.4503157,7.8100186 5.5635589,7.7777078 4.7315384,7.8243887 3.8491744,7.6847201 3.0434318,7.8465637 z"
     id="path3068"
     inkscape:connector-curvature="0" />
  <path
     style="fill:#ececec;fill-opacity:1"
     d="m 3.0434318,2.7787671 c -0.1133994,1.3482832 -0.015382,2.7342728 -0.048199,4.0969279 0.4044752,0.4519577 1.2701888,0.077336 1.8522245,0.1996822 3.0847458,0 6.1694918,0 9.2542378,0 0.451957,-0.4044752 0.07733,-1.2701888 0.199682,-1.8522245 -0.04369,-0.8171893 0.0888,-1.6725409 -0.06886,-2.4650424 C 11.360107,2.6453812 8.4503157,2.742222 5.5635589,2.7099111 4.7315384,2.7565921 3.8491744,2.6169235 3.0434318,2.7787671 z"
     id="path3070"
     inkscape:connector-curvature="0" />
</svg>
