<?xml version="1.0" encoding="UTF-8" standalone="no"?>
<!-- Created with Inkscape (http://www.inkscape.org/) -->

<svg
   xmlns:dc="http://purl.org/dc/elements/1.1/"
   xmlns:cc="http://creativecommons.org/ns#"
   xmlns:rdf="http://www.w3.org/1999/02/22-rdf-syntax-ns#"
   xmlns:svg="http://www.w3.org/2000/svg"
   xmlns="http://www.w3.org/2000/svg"
   xmlns:sodipodi="http://sodipodi.sourceforge.net/DTD/sodipodi-0.dtd"
   xmlns:inkscape="http://www.inkscape.org/namespaces/inkscape"
   id="svg3023"
   version="1.1"
   inkscape:version="0.48.4 r9939"
   width="26"
   height="26"
   sodipodi:docname="server-icon.svg">
  <metadata
     id="metadata3029">
    <rdf:RDF>
      <cc:Work
         rdf:about="">
        <dc:format>image/svg+xml</dc:format>
        <dc:type
           rdf:resource="http://purl.org/dc/dcmitype/StillImage" />
        <dc:title />
      </cc:Work>
    </rdf:RDF>
  </metadata>
  <defs
     id="defs3027" />
  <sodipodi:namedview
     pagecolor="#ffffff"
     bordercolor="#666666"
     borderopacity="1"
     objecttolerance="10"
     gridtolerance="10"
     guidetolerance="10"
     inkscape:pageopacity="0"
     inkscape:pageshadow="2"
     inkscape:window-width="1101"
     inkscape:window-height="703"
     id="namedview3025"
     showgrid="false"
     inkscape:zoom="9.0769231"
     inkscape:cx="13.991525"
     inkscape:cy="16.72261"
     inkscape:window-x="0"
     inkscape:window-y="30"
     inkscape:window-maximized="0"
     inkscape:current-layer="svg3023" />
  <path
     style="fill:#1a1a1a"
     d="m 2.5,-0.125 -1.1875,1.21875 -1.1875,1.1875 0,10.59375 0,10.625 1.1875,1.1875 1.1875,1.1875 6.125,0 6.09375,0 1.1875,-1.1875 1.21875,-1.1875 0,-10.625 0,-10.59375 -1.21875,-1.1875 -1.1875,-1.21875 -6.09375,0 -6.125,0 z m 15.625,0.8125 0,12.1875 0,12.21875 2.71875,-0.6875 c 1.509423,-0.378841 3.309423,-1.145622 4,-1.71875 l 1.28125,-1.03125 0,-8.78125 0,-8.75 -1.28125,-1.03125 c -0.690577,-0.5731279 -2.490577,-1.3399089 -4,-1.71875 L 18.125,0.6875 z m -16,1.1875 6.5,0 6.5,0 0,5.5 0,5.5 -6.5,0 -6.5,0 0,-5.5 0,-5.5 z m 1,1 0,2 0,2 5.5,0 5.5,0 0,-2 0,-2 -5.5,0 -5.5,0 z m 0,5 0,2 0,2 5.5,0 5.5,0 0,-2 0,-2 -5.5,0 -5.5,0 z m 5.65625,9.53125 c 0.8393021,0 1.53125,0.653428 1.53125,1.46875 0,0.815322 -0.6919479,1.46875 -1.53125,1.46875 -0.8393021,0 -1.5,-0.653428 -1.5,-1.46875 0,-0.815322 0.6606979,-1.46875 1.5,-1.46875 z"
     id="path3896"
     inkscape:connector-curvature="0" />
</svg>
